<svg width="53" height="10" viewBox="0 0 53 10" fill="none" xmlns="http://www.w3.org/2000/svg">
<path d="M5.70703 6.16992H7.45898C7.42383 6.74414 7.26562 7.25391 6.98438 7.69922C6.70703 8.14453 6.31836 8.49219 5.81836 8.74219C5.32227 8.99219 4.72461 9.11719 4.02539 9.11719C3.47852 9.11719 2.98828 9.02344 2.55469 8.83594C2.12109 8.64453 1.75 8.37109 1.44141 8.01562C1.13672 7.66016 0.904297 7.23047 0.744141 6.72656C0.583984 6.22266 0.503906 5.6582 0.503906 5.0332V4.44141C0.503906 3.81641 0.585938 3.25195 0.75 2.74805C0.917969 2.24023 1.15625 1.80859 1.46484 1.45312C1.77734 1.09766 2.15039 0.824219 2.58398 0.632812C3.01758 0.441406 3.50195 0.345703 4.03711 0.345703C4.74805 0.345703 5.34766 0.474609 5.83594 0.732422C6.32812 0.990234 6.70898 1.3457 6.97852 1.79883C7.25195 2.25195 7.41602 2.76758 7.4707 3.3457H5.71289C5.69336 3.00195 5.625 2.71094 5.50781 2.47266C5.39062 2.23047 5.21289 2.04883 4.97461 1.92773C4.74023 1.80273 4.42773 1.74023 4.03711 1.74023C3.74414 1.74023 3.48828 1.79492 3.26953 1.9043C3.05078 2.01367 2.86719 2.17969 2.71875 2.40234C2.57031 2.625 2.45898 2.90625 2.38477 3.24609C2.31445 3.58203 2.2793 3.97656 2.2793 4.42969V5.0332C2.2793 5.47461 2.3125 5.86328 2.37891 6.19922C2.44531 6.53125 2.54688 6.8125 2.68359 7.04297C2.82422 7.26953 3.00391 7.44141 3.22266 7.55859C3.44531 7.67188 3.71289 7.72852 4.02539 7.72852C4.39258 7.72852 4.69531 7.66992 4.93359 7.55273C5.17188 7.43555 5.35352 7.26172 5.47852 7.03125C5.60742 6.80078 5.68359 6.51367 5.70703 6.16992ZM11.9297 7.57031V4.74609C11.9297 4.54297 11.8965 4.36914 11.8301 4.22461C11.7637 4.07617 11.6602 3.96094 11.5195 3.87891C11.3828 3.79688 11.2051 3.75586 10.9863 3.75586C10.7988 3.75586 10.6367 3.78906 10.5 3.85547C10.3633 3.91797 10.2578 4.00977 10.1836 4.13086C10.1094 4.24805 10.0723 4.38672 10.0723 4.54688H8.38477C8.38477 4.27734 8.44727 4.02148 8.57227 3.7793C8.69727 3.53711 8.87891 3.32422 9.11719 3.14062C9.35547 2.95312 9.63867 2.80664 9.9668 2.70117C10.2988 2.5957 10.6699 2.54297 11.0801 2.54297C11.5723 2.54297 12.0098 2.625 12.3926 2.78906C12.7754 2.95312 13.0762 3.19922 13.2949 3.52734C13.5176 3.85547 13.6289 4.26562 13.6289 4.75781V7.4707C13.6289 7.81836 13.6504 8.10352 13.6934 8.32617C13.7363 8.54492 13.7988 8.73633 13.8809 8.90039V9H12.1758C12.0938 8.82812 12.0312 8.61328 11.9883 8.35547C11.9492 8.09375 11.9297 7.83203 11.9297 7.57031ZM12.1523 5.13867L12.1641 6.09375H11.2207C10.998 6.09375 10.8047 6.11914 10.6406 6.16992C10.4766 6.2207 10.3418 6.29297 10.2363 6.38672C10.1309 6.47656 10.0527 6.58203 10.002 6.70312C9.95508 6.82422 9.93164 6.95703 9.93164 7.10156C9.93164 7.24609 9.96484 7.37695 10.0312 7.49414C10.0977 7.60742 10.1934 7.69727 10.3184 7.76367C10.4434 7.82617 10.5898 7.85742 10.7578 7.85742C11.0117 7.85742 11.2324 7.80664 11.4199 7.70508C11.6074 7.60352 11.752 7.47852 11.8535 7.33008C11.959 7.18164 12.0137 7.04102 12.0176 6.9082L12.4629 7.62305C12.4004 7.7832 12.3145 7.94922 12.2051 8.12109C12.0996 8.29297 11.9648 8.45508 11.8008 8.60742C11.6367 8.75586 11.4395 8.87891 11.209 8.97656C10.9785 9.07031 10.7051 9.11719 10.3887 9.11719C9.98633 9.11719 9.62109 9.03711 9.29297 8.87695C8.96875 8.71289 8.71094 8.48828 8.51953 8.20312C8.33203 7.91406 8.23828 7.58594 8.23828 7.21875C8.23828 6.88672 8.30078 6.5918 8.42578 6.33398C8.55078 6.07617 8.73438 5.85938 8.97656 5.68359C9.22266 5.50391 9.5293 5.36914 9.89648 5.2793C10.2637 5.18555 10.6895 5.13867 11.1738 5.13867H12.1523ZM18.6738 7.61719V0H20.373V9H18.8438L18.6738 7.61719ZM14.666 5.90625V5.7832C14.666 5.29883 14.7207 4.85938 14.8301 4.46484C14.9395 4.06641 15.0996 3.72461 15.3105 3.43945C15.5215 3.1543 15.7812 2.93359 16.0898 2.77734C16.3984 2.62109 16.75 2.54297 17.1445 2.54297C17.5156 2.54297 17.8398 2.62109 18.1172 2.77734C18.3984 2.93359 18.6367 3.15625 18.832 3.44531C19.0312 3.73047 19.1914 4.06836 19.3125 4.45898C19.4336 4.8457 19.5215 5.26953 19.5762 5.73047V6C19.5215 6.44141 19.4336 6.85156 19.3125 7.23047C19.1914 7.60938 19.0312 7.94141 18.832 8.22656C18.6367 8.50781 18.3984 8.72656 18.1172 8.88281C17.8359 9.03906 17.5078 9.11719 17.1328 9.11719C16.7383 9.11719 16.3867 9.03711 16.0781 8.87695C15.7734 8.7168 15.5156 8.49219 15.3047 8.20312C15.0977 7.91406 14.9395 7.57422 14.8301 7.18359C14.7207 6.79297 14.666 6.36719 14.666 5.90625ZM16.3535 5.7832V5.90625C16.3535 6.16797 16.373 6.41211 16.4121 6.63867C16.4551 6.86523 16.5234 7.06641 16.6172 7.24219C16.7148 7.41406 16.8398 7.54883 16.9922 7.64648C17.1484 7.74023 17.3379 7.78711 17.5605 7.78711C17.8496 7.78711 18.0879 7.72266 18.2754 7.59375C18.4629 7.46094 18.6055 7.2793 18.7031 7.04883C18.8047 6.81836 18.8633 6.55273 18.8789 6.25195V5.48438C18.8672 5.23828 18.832 5.01758 18.7734 4.82227C18.7188 4.62305 18.6367 4.45312 18.5273 4.3125C18.4219 4.17188 18.2891 4.0625 18.1289 3.98438C17.9727 3.90625 17.7871 3.86719 17.5723 3.86719C17.3535 3.86719 17.166 3.91797 17.0098 4.01953C16.8535 4.11719 16.7266 4.25195 16.6289 4.42383C16.5352 4.5957 16.4648 4.79883 16.418 5.0332C16.375 5.26367 16.3535 5.51367 16.3535 5.7832ZM25.1133 7.57031V4.74609C25.1133 4.54297 25.0801 4.36914 25.0137 4.22461C24.9473 4.07617 24.8438 3.96094 24.7031 3.87891C24.5664 3.79688 24.3887 3.75586 24.1699 3.75586C23.9824 3.75586 23.8203 3.78906 23.6836 3.85547C23.5469 3.91797 23.4414 4.00977 23.3672 4.13086C23.293 4.24805 23.2559 4.38672 23.2559 4.54688H21.5684C21.5684 4.27734 21.6309 4.02148 21.7559 3.7793C21.8809 3.53711 22.0625 3.32422 22.3008 3.14062C22.5391 2.95312 22.8223 2.80664 23.1504 2.70117C23.4824 2.5957 23.8535 2.54297 24.2637 2.54297C24.7559 2.54297 25.1934 2.625 25.5762 2.78906C25.959 2.95312 26.2598 3.19922 26.4785 3.52734C26.7012 3.85547 26.8125 4.26562 26.8125 4.75781V7.4707C26.8125 7.81836 26.834 8.10352 26.877 8.32617C26.9199 8.54492 26.9824 8.73633 27.0645 8.90039V9H25.3594C25.2773 8.82812 25.2148 8.61328 25.1719 8.35547C25.1328 8.09375 25.1133 7.83203 25.1133 7.57031ZM25.3359 5.13867L25.3477 6.09375H24.4043C24.1816 6.09375 23.9883 6.11914 23.8242 6.16992C23.6602 6.2207 23.5254 6.29297 23.4199 6.38672C23.3145 6.47656 23.2363 6.58203 23.1855 6.70312C23.1387 6.82422 23.1152 6.95703 23.1152 7.10156C23.1152 7.24609 23.1484 7.37695 23.2148 7.49414C23.2812 7.60742 23.377 7.69727 23.502 7.76367C23.627 7.82617 23.7734 7.85742 23.9414 7.85742C24.1953 7.85742 24.416 7.80664 24.6035 7.70508C24.791 7.60352 24.9355 7.47852 25.0371 7.33008C25.1426 7.18164 25.1973 7.04102 25.2012 6.9082L25.6465 7.62305C25.584 7.7832 25.498 7.94922 25.3887 8.12109C25.2832 8.29297 25.1484 8.45508 24.9844 8.60742C24.8203 8.75586 24.623 8.87891 24.3926 8.97656C24.1621 9.07031 23.8887 9.11719 23.5723 9.11719C23.1699 9.11719 22.8047 9.03711 22.4766 8.87695C22.1523 8.71289 21.8945 8.48828 21.7031 8.20312C21.5156 7.91406 21.4219 7.58594 21.4219 7.21875C21.4219 6.88672 21.4844 6.5918 21.6094 6.33398C21.7344 6.07617 21.918 5.85938 22.1602 5.68359C22.4062 5.50391 22.7129 5.36914 23.0801 5.2793C23.4473 5.18555 23.873 5.13867 24.3574 5.13867H25.3359ZM31.541 7.24805C31.541 7.12695 31.5059 7.01758 31.4355 6.91992C31.3652 6.82227 31.2344 6.73242 31.043 6.65039C30.8555 6.56445 30.584 6.48633 30.2285 6.41602C29.9082 6.3457 29.6094 6.25781 29.332 6.15234C29.0586 6.04297 28.8203 5.91211 28.6172 5.75977C28.418 5.60742 28.2617 5.42773 28.1484 5.2207C28.0352 5.00977 27.9785 4.76953 27.9785 4.5C27.9785 4.23438 28.0352 3.98438 28.1484 3.75C28.2656 3.51562 28.4316 3.30859 28.6465 3.12891C28.8652 2.94531 29.1309 2.80273 29.4434 2.70117C29.7598 2.5957 30.1152 2.54297 30.5098 2.54297C31.0605 2.54297 31.5332 2.63086 31.9277 2.80664C32.3262 2.98242 32.6309 3.22461 32.8418 3.5332C33.0566 3.83789 33.1641 4.18555 33.1641 4.57617H31.4766C31.4766 4.41211 31.4414 4.26562 31.3711 4.13672C31.3047 4.00391 31.1992 3.90039 31.0547 3.82617C30.9141 3.74805 30.7305 3.70898 30.5039 3.70898C30.3164 3.70898 30.1543 3.74219 30.0176 3.80859C29.8809 3.87109 29.7754 3.95703 29.7012 4.06641C29.6309 4.17188 29.5957 4.28906 29.5957 4.41797C29.5957 4.51562 29.6152 4.60352 29.6543 4.68164C29.6973 4.75586 29.7656 4.82422 29.8594 4.88672C29.9531 4.94922 30.0742 5.00781 30.2227 5.0625C30.375 5.11328 30.5625 5.16016 30.7852 5.20312C31.2422 5.29688 31.6504 5.41992 32.0098 5.57227C32.3691 5.7207 32.6543 5.92383 32.8652 6.18164C33.0762 6.43555 33.1816 6.76953 33.1816 7.18359C33.1816 7.46484 33.1191 7.72266 32.9941 7.95703C32.8691 8.19141 32.6895 8.39648 32.4551 8.57227C32.2207 8.74414 31.9395 8.87891 31.6113 8.97656C31.2871 9.07031 30.9219 9.11719 30.5156 9.11719C29.9258 9.11719 29.4258 9.01172 29.0156 8.80078C28.6094 8.58984 28.3008 8.32227 28.0898 7.99805C27.8828 7.66992 27.7793 7.33398 27.7793 6.99023H29.3789C29.3867 7.2207 29.4453 7.40625 29.5547 7.54688C29.668 7.6875 29.8105 7.78906 29.9824 7.85156C30.1582 7.91406 30.3477 7.94531 30.5508 7.94531C30.7695 7.94531 30.9512 7.91602 31.0957 7.85742C31.2402 7.79492 31.3496 7.71289 31.4238 7.61133C31.502 7.50586 31.541 7.38477 31.541 7.24805ZM37.3828 2.66016V3.85547H33.6914V2.66016H37.3828ZM34.6055 1.0957H36.293V7.08984C36.293 7.27344 36.3164 7.41406 36.3633 7.51172C36.4141 7.60938 36.4883 7.67773 36.5859 7.7168C36.6836 7.75195 36.8066 7.76953 36.9551 7.76953C37.0605 7.76953 37.1543 7.76562 37.2363 7.75781C37.3223 7.74609 37.3945 7.73438 37.4531 7.72266L37.459 8.96484C37.3145 9.01172 37.1582 9.04883 36.9902 9.07617C36.8223 9.10352 36.6367 9.11719 36.4336 9.11719C36.0625 9.11719 35.7383 9.05664 35.4609 8.93555C35.1875 8.81055 34.9766 8.61133 34.8281 8.33789C34.6797 8.06445 34.6055 7.70508 34.6055 7.25977V1.0957ZM40.0312 4.04297V9H38.3438V2.66016H39.9316L40.0312 4.04297ZM41.9414 2.61914L41.9121 4.18359C41.8301 4.17188 41.7305 4.16211 41.6133 4.1543C41.5 4.14258 41.3965 4.13672 41.3027 4.13672C41.0645 4.13672 40.8574 4.16797 40.6816 4.23047C40.5098 4.28906 40.3652 4.37695 40.248 4.49414C40.1348 4.61133 40.0488 4.75391 39.9902 4.92188C39.9355 5.08984 39.9043 5.28125 39.8965 5.49609L39.5566 5.39062C39.5566 4.98047 39.5977 4.60352 39.6797 4.25977C39.7617 3.91211 39.8809 3.60938 40.0371 3.35156C40.1973 3.09375 40.3926 2.89453 40.623 2.75391C40.8535 2.61328 41.1172 2.54297 41.4141 2.54297C41.5078 2.54297 41.6035 2.55078 41.7012 2.56641C41.7988 2.57812 41.8789 2.5957 41.9414 2.61914ZM45.9609 7.57031V4.74609C45.9609 4.54297 45.9277 4.36914 45.8613 4.22461C45.7949 4.07617 45.6914 3.96094 45.5508 3.87891C45.4141 3.79688 45.2363 3.75586 45.0176 3.75586C44.8301 3.75586 44.668 3.78906 44.5312 3.85547C44.3945 3.91797 44.2891 4.00977 44.2148 4.13086C44.1406 4.24805 44.1035 4.38672 44.1035 4.54688H42.416C42.416 4.27734 42.4785 4.02148 42.6035 3.7793C42.7285 3.53711 42.9102 3.32422 43.1484 3.14062C43.3867 2.95312 43.6699 2.80664 43.998 2.70117C44.3301 2.5957 44.7012 2.54297 45.1113 2.54297C45.6035 2.54297 46.041 2.625 46.4238 2.78906C46.8066 2.95312 47.1074 3.19922 47.3262 3.52734C47.5488 3.85547 47.6602 4.26562 47.6602 4.75781V7.4707C47.6602 7.81836 47.6816 8.10352 47.7246 8.32617C47.7676 8.54492 47.8301 8.73633 47.9121 8.90039V9H46.207C46.125 8.82812 46.0625 8.61328 46.0195 8.35547C45.9805 8.09375 45.9609 7.83203 45.9609 7.57031ZM46.1836 5.13867L46.1953 6.09375H45.252C45.0293 6.09375 44.8359 6.11914 44.6719 6.16992C44.5078 6.2207 44.373 6.29297 44.2676 6.38672C44.1621 6.47656 44.084 6.58203 44.0332 6.70312C43.9863 6.82422 43.9629 6.95703 43.9629 7.10156C43.9629 7.24609 43.9961 7.37695 44.0625 7.49414C44.1289 7.60742 44.2246 7.69727 44.3496 7.76367C44.4746 7.82617 44.6211 7.85742 44.7891 7.85742C45.043 7.85742 45.2637 7.80664 45.4512 7.70508C45.6387 7.60352 45.7832 7.47852 45.8848 7.33008C45.9902 7.18164 46.0449 7.04102 46.0488 6.9082L46.4941 7.62305C46.4316 7.7832 46.3457 7.94922 46.2363 8.12109C46.1309 8.29297 45.9961 8.45508 45.832 8.60742C45.668 8.75586 45.4707 8.87891 45.2402 8.97656C45.0098 9.07031 44.7363 9.11719 44.4199 9.11719C44.0176 9.11719 43.6523 9.03711 43.3242 8.87695C43 8.71289 42.7422 8.48828 42.5508 8.20312C42.3633 7.91406 42.2695 7.58594 42.2695 7.21875C42.2695 6.88672 42.332 6.5918 42.457 6.33398C42.582 6.07617 42.7656 5.85938 43.0078 5.68359C43.2539 5.50391 43.5605 5.36914 43.9277 5.2793C44.2949 5.18555 44.7207 5.13867 45.2051 5.13867H46.1836ZM50.6484 4.04297V9H48.9609V2.66016H50.5488L50.6484 4.04297ZM52.5586 2.61914L52.5293 4.18359C52.4473 4.17188 52.3477 4.16211 52.2305 4.1543C52.1172 4.14258 52.0137 4.13672 51.9199 4.13672C51.6816 4.13672 51.4746 4.16797 51.2988 4.23047C51.127 4.28906 50.9824 4.37695 50.8652 4.49414C50.752 4.61133 50.666 4.75391 50.6074 4.92188C50.5527 5.08984 50.5215 5.28125 50.5137 5.49609L50.1738 5.39062C50.1738 4.98047 50.2148 4.60352 50.2969 4.25977C50.3789 3.91211 50.498 3.60938 50.6543 3.35156C50.8145 3.09375 51.0098 2.89453 51.2402 2.75391C51.4707 2.61328 51.7344 2.54297 52.0312 2.54297C52.125 2.54297 52.2207 2.55078 52.3184 2.56641C52.416 2.57812 52.4961 2.5957 52.5586 2.61914Z" fill="white"/>
</svg>
